<?xml version="1.0" encoding="UTF-8"?>
<svg version="1.1" xmlns="http://www.w3.org/2000/svg" width="512" height="512">
<path d="M0 0 C0.78101074 0.59554687 1.56202148 1.19109375 2.36669922 1.8046875 C8.67186017 6.72195087 14.37644287 12.07297006 20 17.75 C20.84433594 18.58660156 21.68867188 19.42320313 22.55859375 20.28515625 C23.36425781 21.09339844 24.16992188 21.90164062 25 22.734375 C26.0828125 23.82057129 26.0828125 23.82057129 27.1875 24.92871094 C29.81067922 27.92642813 30.91854228 30.02250738 31.25 34 C30.98548501 37.17417984 30.78181796 38.40252695 29 41 C26.62630839 42.62127616 24.31405595 44.04259946 21.8125 45.4375 C21.07290039 45.86144043 20.33330078 46.28538086 19.57128906 46.72216797 C17.05428518 48.16038213 14.52802459 49.58125317 12 51 C10.07144705 52.08694238 8.14306712 53.1741918 6.21484375 54.26171875 C3.238134 55.94045027 0.26118217 57.61871348 -2.71777344 59.29345703 C-9.92553842 63.35678896 -17.01592319 67.56289938 -24 72 C-18.77348239 83.76361214 -12.76530295 94.93110923 -6.36328125 106.09375 C-3.12739213 111.74238791 -0.02448211 117.45656313 3.0625 123.1875 C7.66037027 131.67731245 12.50088529 139.98299287 17.51171875 148.234375 C22.02239628 155.66436195 26.44299973 163.14793456 30.875 170.625 C32.0884209 172.67158056 33.30197044 174.71808358 34.51618958 176.76419067 C35.2845169 178.06006226 36.05162137 179.35665976 36.81742859 180.65402222 C38.4697318 183.44884271 40.13996085 186.22263506 41.86816406 188.97167969 C42.40924805 189.83438477 42.95033203 190.69708984 43.5078125 191.5859375 C43.97074707 192.30571777 44.43368164 193.02549805 44.91064453 193.76708984 C46.79442307 197.62837144 47.46745639 200.62763195 46.06420898 204.74731445 C45.56735596 205.6724585 45.07050293 206.59760254 44.55859375 207.55078125 C43.99897949 208.5970166 43.43936523 209.64325195 42.86279297 210.72119141 C39.70533458 216.27881476 36.42092957 221.74958408 33.0625 227.1875 C31.55797541 229.63684492 30.05628152 232.08792018 28.5546875 234.5390625 C28.17654404 235.15525955 27.79840057 235.7714566 27.40879822 236.40632629 C24.79645332 240.6715804 22.23300408 244.9634133 19.6953125 249.2734375 C19.01299919 250.42817658 18.33062732 251.58288105 17.64819336 252.73754883 C16.36666636 254.91076714 15.09117038 257.0875562 13.82250977 259.26831055 C13.24557373 260.24324463 12.6686377 261.21817871 12.07421875 262.22265625 C11.32531372 263.50281616 11.32531372 263.50281616 10.5612793 264.80883789 C8.80239051 267.2773331 7.73350212 268.65103275 5 270 C-1.45764454 269.88318174 -6.48210718 267.77587884 -12.265625 265.0625 C-13.13910583 264.66353516 -14.01258667 264.26457031 -14.91253662 263.85351562 C-17.69651759 262.57922487 -20.47330531 261.29007869 -23.25 260 C-25.06723871 259.16434258 -26.88494401 258.32969902 -28.703125 257.49609375 C-31.41957425 256.25052141 -34.13481466 255.00269347 -36.84606934 253.74584961 C-41.44718179 251.61472505 -46.06082034 249.52557792 -50.71289062 247.5078125 C-51.62987732 247.10691406 -52.54686401 246.70601563 -53.49163818 246.29296875 C-55.23421098 245.53360653 -56.98067708 244.78309564 -58.73150635 244.04296875 C-66.14743539 240.79726782 -66.14743539 240.79726782 -68 237 C-68.67333984 234.43481445 -68.67333984 234.43481445 -69.0859375 231.55078125 C-69.2415918 230.48939941 -69.39724609 229.42801758 -69.55761719 228.33447266 C-69.77659668 226.68390869 -69.77659668 226.68390869 -70 225 C-70.1434082 223.94216309 -70.28681641 222.88432617 -70.43457031 221.79443359 C-70.85300994 218.59439943 -71.24317588 215.39209526 -71.625 212.1875 C-71.7590625 211.10791016 -71.893125 210.02832031 -72.03125 208.91601562 C-72.67353683 203.57127167 -73.1689489 198.38332627 -73 193 C-74.24898071 192.8302063 -74.24898071 192.8302063 -75.52319336 192.65698242 C-79.36368728 191.93127712 -82.95419486 190.78633926 -86.62890625 189.48828125 C-87.34102768 189.2375737 -88.05314911 188.98686615 -88.78684998 188.7285614 C-90.28467076 188.19778578 -91.78140772 187.6639427 -93.27709961 187.12719727 C-95.55346038 186.31572244 -97.83773835 185.52999965 -100.12304688 184.74414062 C-101.58389565 184.22292754 -103.04420189 183.70019084 -104.50390625 183.17578125 C-105.18111221 182.94740067 -105.85831818 182.71902008 -106.55604553 182.48371887 C-111.6650464 180.59801201 -113.95332822 178.34180989 -117 174 C-117.92578125 171.18359375 -117.92578125 171.18359375 -118.3125 168.4375 C-118.45300781 167.52871094 -118.59351563 166.61992187 -118.73828125 165.68359375 C-118.99009559 163.10155719 -119.0515644 160.59228305 -119 158 C-119.66 158 -120.32 158 -121 158 C-121.12375 158.721875 -121.2475 159.44375 -121.375 160.1875 C-122 163 -122 163 -123.125 165.5625 C-124.13559515 168.37772934 -123.93723874 169.22628437 -123 172 C-121.98886076 173.78471228 -121.98886076 173.78471228 -120.69921875 175.51171875 C-120.22307129 176.17792236 -119.74692383 176.84412598 -119.25634766 177.53051758 C-118.73862793 178.24232178 -118.2209082 178.95412598 -117.6875 179.6875 C-116.58449304 181.22646047 -115.48163238 182.7655258 -114.37890625 184.3046875 C-113.81445801 185.08811523 -113.25000977 185.87154297 -112.66845703 186.67871094 C-110.13189625 190.20777443 -107.62826983 193.75978405 -105.125 197.3125 C-104.63604248 198.00496826 -104.14708496 198.69743652 -103.64331055 199.41088867 C-99.14796892 205.77934985 -94.6795363 212.16654558 -90.21362305 218.55566406 C-86.96006793 223.20808204 -83.69393313 227.85108744 -80.41113281 232.48291016 C-75.24735229 239.77003449 -70.16710997 247.10909676 -65.13867188 254.49023438 C-61.45735798 259.88804255 -57.73767163 265.25756513 -53.99609375 270.61376953 C-51.29331995 274.48522375 -48.60097717 278.36384488 -45.91162109 282.24462891 C-44.67278545 284.03026097 -43.43109854 285.81391959 -42.18603516 287.59521484 C-31.2537407 303.26967374 -24.42248997 317.41088065 -27.31640625 337.15917969 C-29.05351879 346.55729582 -31.92851932 355.33976036 -36 364 C-34.97519531 364.01417969 -33.95039063 364.02835937 -32.89453125 364.04296875 C-31.53381029 364.08989016 -30.17313459 364.13813744 -28.8125 364.1875 C-28.13896484 364.19330078 -27.46542969 364.19910156 -26.77148438 364.20507812 C-23.21453582 364.36123684 -21.18691359 364.86409965 -18.29492188 366.96679688 C-15.1420148 371.13400087 -15.35720752 374.15418345 -15.51171875 379.23828125 C-15.51879349 380.11904831 -15.52586823 380.99981537 -15.53315735 381.90727234 C-15.56106152 384.70989285 -15.62379057 387.51048735 -15.6875 390.3125 C-15.7125881 392.21676794 -15.73540038 394.12106732 -15.75585938 396.02539062 C-15.81087497 400.68436984 -15.89711849 405.34184189 -16 410 C-15.35973877 409.97381592 -14.71947754 409.94763184 -14.05981445 409.9206543 C-11.14429498 409.81638719 -8.22916802 409.75158247 -5.3125 409.6875 C-4.30509766 409.64560547 -3.29769531 409.60371094 -2.25976562 409.56054688 C-1.28330078 409.54443359 -0.30683594 409.52832031 0.69921875 409.51171875 C1.59471436 409.48553467 2.49020996 409.45935059 3.4128418 409.43237305 C7.42129492 410.31183455 8.66871225 411.61032357 11 415 C11.74056113 418.96857636 11.70053062 422.87857281 11.6640625 426.90625 C11.66884613 428.06370728 11.67362976 429.22116455 11.67855835 430.41369629 C11.681957 432.85800538 11.67275725 435.30235995 11.65185547 437.74658203 C11.62509277 441.48703408 11.65160805 445.22448499 11.68359375 448.96484375 C11.68028965 451.34115245 11.67388342 453.71745929 11.6640625 456.09375 C11.67418365 457.2115686 11.68430481 458.32938721 11.69473267 459.4810791 C11.67897186 460.52566284 11.66321106 461.57024658 11.64697266 462.64648438 C11.64299469 463.5618396 11.63901672 464.47719482 11.63491821 465.42028809 C10.66829983 469.34771827 9.26794138 470.58114308 6 473 C1.99405329 473.75769835 -1.97287287 473.66976097 -6.03944397 473.62818909 C-7.27412664 473.63528347 -8.50880932 473.64237786 -9.78090662 473.64968723 C-13.2056569 473.66424966 -16.6290256 473.65636795 -20.05367482 473.6389643 C-23.74766961 473.62560216 -27.44155919 473.64102312 -31.13554382 473.65278625 C-38.37070778 473.6711754 -45.60560186 473.66264239 -52.84075744 473.64469803 C-58.71972376 473.63067936 -64.59861676 473.62677764 -70.47759819 473.6301403 C-71.31392494 473.63061775 -72.1502517 473.63109519 -73.01192169 473.6315871 C-74.71082511 473.63261341 -76.40972851 473.63366877 -78.1086319 473.63475286 C-93.13440566 473.64332236 -108.16004899 473.62663626 -123.18579102 473.59692383 C-137.77210975 473.56808065 -152.35824064 473.56100498 -166.94458008 473.57641602 C-182.8227641 473.59316892 -198.70085891 473.5972221 -214.57904524 473.57970566 C-216.27143601 473.57786123 -217.96382678 473.57602651 -219.65621758 473.57420158 C-220.48894109 473.57328949 -221.3216646 473.5723774 -222.17962216 473.57143768 C-228.05334251 473.565827 -233.92701938 473.56914435 -239.80073738 473.57574654 C-246.9561782 473.58347001 -254.11143396 473.57676273 -261.26683743 473.5515715 C-264.91901572 473.53905395 -268.57090558 473.53295696 -272.22309494 473.54411316 C-276.17808882 473.55596643 -280.13258253 473.53693988 -284.08753967 473.5146637 C-285.24754409 473.52290446 -286.40754851 473.53114523 -287.60270458 473.53963572 C-288.65957075 473.52858803 -289.71643691 473.51754034 -290.80532932 473.50615788 C-291.7185044 473.50496639 -292.63167947 473.50377491 -293.57252651 473.50254732 C-296.78373075 472.83774826 -297.96739707 471.52154124 -300 469 C-300.95647344 466.13057968 -301.13159304 464.31271761 -301.14526367 461.33251953 C-301.15164352 460.38788849 -301.15802338 459.44325745 -301.16459656 458.47000122 C-301.16570938 457.45122894 -301.1668222 456.43245667 -301.16796875 455.3828125 C-301.17296135 453.80885208 -301.17296135 453.80885208 -301.17805481 452.20309448 C-301.18311969 449.98224323 -301.18546327 447.76138436 -301.18530273 445.54052734 C-301.18748689 442.14537991 -301.20564102 438.75055858 -301.22460938 435.35546875 C-301.22754385 433.19791778 -301.22952828 431.04036526 -301.23046875 428.8828125 C-301.23765427 427.86808868 -301.24483978 426.85336487 -301.25224304 425.80789185 C-301.24916641 424.85695648 -301.24608978 423.90602112 -301.24291992 422.92626953 C-301.24434494 422.09370636 -301.24576996 421.26114319 -301.24723816 420.40335083 C-300.86254132 416.6637927 -299.87004183 413.86078855 -297.18652344 411.20581055 C-294.58016324 409.768471 -292.97815926 409.65283855 -290.015625 409.70703125 C-289.08105469 409.71669922 -288.14648438 409.72636719 -287.18359375 409.73632812 C-286.21550781 409.76146484 -285.24742187 409.78660156 -284.25 409.8125 C-283.26644531 409.82603516 -282.28289062 409.83957031 -281.26953125 409.85351562 C-278.84579585 409.88881274 -276.42317855 409.93811946 -274 410 C-274.01571045 408.87505127 -274.0314209 407.75010254 -274.04760742 406.59106445 C-274.10201216 402.40721835 -274.13638836 398.22340338 -274.16479492 394.03930664 C-274.17985755 392.23033383 -274.20031177 390.4213974 -274.22631836 388.61254883 C-274.2628132 386.00853485 -274.27975157 383.4050048 -274.29296875 380.80078125 C-274.30845261 379.99538406 -274.32393646 379.18998688 -274.33988953 378.36018372 C-274.34126543 373.74284996 -274.00846192 370.73978614 -271 367 C-267.9788566 364.9859044 -267.19339983 364.73163404 -263.76953125 364.5859375 C-262.96708984 364.54726563 -262.16464844 364.50859375 -261.33789062 364.46875 C-260.08782227 364.42234375 -260.08782227 364.42234375 -258.8125 364.375 C-257.96751953 364.33632813 -257.12253906 364.29765625 -256.25195312 364.2578125 C-254.16832476 364.16363721 -252.08419247 364.08073325 -250 364 C-250.50789063 363.17757813 -251.01578125 362.35515625 -251.5390625 361.5078125 C-252.22742188 360.39148438 -252.91578125 359.27515625 -253.625 358.125 C-253.99689453 357.53146729 -254.36878906 356.93793457 -254.75195312 356.32641602 C-256.39040775 353.69717741 -257.94231251 351.11796573 -259.3046875 348.33203125 C-263.76771193 339.39139733 -271.9843136 334.51351206 -280 329 C-280.66386719 328.53980469 -281.32773437 328.07960938 -282.01171875 327.60546875 C-284.61095692 325.805198 -287.21474443 324.01199532 -289.82836914 322.23266602 C-295.21288015 318.56606728 -300.52523607 314.80536459 -305.8125 311 C-306.58384277 310.44771729 -307.35518555 309.89543457 -308.14990234 309.32641602 C-309.23005615 308.54609009 -309.23005615 308.54609009 -310.33203125 307.75 C-310.96858643 307.29109375 -311.6051416 306.8321875 -312.26098633 306.359375 C-316.67072092 302.91231587 -318.5060633 299.12315348 -320.625 294 C-320.96837402 293.17185791 -321.31174805 292.34371582 -321.66552734 291.49047852 C-329.75799617 271.53622119 -335.79607685 251.10853121 -340 230 C-340.16725586 229.16098145 -340.33451172 228.32196289 -340.50683594 227.45751953 C-350.85875782 173.66091905 -344.17799285 116.10884383 -314 69.625 C-306.82764428 59.3048569 -299.14422186 49.60757486 -290.45947266 40.52685547 C-289.47491573 39.49684225 -288.4955186 38.46187541 -287.52099609 37.42236328 C-279.3906161 28.77117603 -270.597657 21.47586671 -261.01660156 14.47851562 C-259.21195706 13.15540096 -257.42777498 11.80993703 -255.6484375 10.453125 C-226.59646276 -11.39346369 -191.51827231 -28.11774119 -156 -36 C-155.2795752 -36.16516113 -154.55915039 -36.33032227 -153.81689453 -36.50048828 C-100.71025321 -48.12695923 -42.62421906 -32.5979429 0 0 Z " fill="#36241A" transform="translate(405,39)"/>
<path d="M0 0 C0.62648438 0.49242188 1.25296875 0.98484375 1.8984375 1.4921875 C3.36410156 2.57113281 3.36410156 2.57113281 4.859375 3.671875 C6.00098136 4.56575211 7.13879481 5.46448748 8.2734375 6.3671875 C8.88413086 6.84969971 9.49482422 7.33221191 10.12402344 7.8293457 C15.15734364 11.83628609 20.04938143 15.99552652 24.91186523 20.20703125 C29.0325786 23.77190033 33.22988106 27.21700374 37.51953125 30.578125 C38.30457031 31.20976563 39.08960938 31.84140625 39.8984375 32.4921875 C40.41728516 32.82774658 40.93613281 33.16330566 41.47070312 33.5090332 C47.78389917 38.03532491 50.39721166 44.87820652 53.51977539 51.73135376 C55.23376679 55.48553068 57.00874516 59.21068006 58.78125 62.9375 C59.13298279 63.67944107 59.48471558 64.42138214 59.84710693 65.18580627 C64.16420598 74.23664703 69.12476785 82.88945355 74.18408203 91.54150391 C76.06949515 94.78660544 77.92275878 98.04923927 79.76953125 101.31640625 C86.08753404 112.48170511 92.47773159 123.59487386 99.1484375 134.5546875 C99.71240234 135.4813623 100.27636719 136.40803711 100.85742188 137.36279297 C103.66359879 141.94193392 106.52464751 146.47559253 109.47265625 150.96484375 C110.3219873 152.26893188 110.3219873 152.26893188 111.18847656 153.59936523 C112.25639177 155.23146504 113.33706481 156.85531584 114.43261719 158.46899414 C114.90473633 159.19078857 115.37685547 159.91258301 115.86328125 160.65625 C116.282146 161.27967285 116.70101074 161.9030957 117.13256836 162.54541016 C118.19085721 165.23549474 117.74254367 166.75685946 116.8984375 169.4921875 C115.82617188 171.58178711 115.82617188 171.58178711 114.4921875 173.64453125 C113.99960449 174.41498779 113.50702148 175.18544434 112.99951172 175.97924805 C112.47115723 176.78789307 111.94280273 177.59653809 111.3984375 178.4296875 C110.86105957 179.26346924 110.32368164 180.09725098 109.77001953 180.95629883 C108.67528611 182.65428917 107.57779953 184.35050771 106.47753906 186.04492188 C105.0214582 188.30153205 103.59084364 190.57149227 102.171875 192.8515625 C101.76388672 193.50261963 101.35589844 194.15367676 100.93554688 194.82446289 C100.17443265 196.03952739 99.41774303 197.25737735 98.66601562 198.47827148 C97.79659046 199.85134223 96.85457972 201.1780279 95.8984375 202.4921875 C95.2384375 202.4921875 94.5784375 202.4921875 93.8984375 202.4921875 C93.64674805 201.6451123 93.39505859 200.79803711 93.13574219 199.92529297 C92.18948249 196.75822853 91.23424041 193.59416027 90.27294922 190.43164062 C89.8601842 189.06716018 89.45093897 187.70160947 89.04541016 186.33496094 C88.45897073 184.36095109 87.85961799 182.3912471 87.2578125 180.421875 C86.72365723 178.64659424 86.72365723 178.64659424 86.17871094 176.83544922 C84.63099961 172.79380945 82.92145453 168.50369602 78.8984375 166.4921875 C75.43342811 166.11555605 73.53495747 166.10692541 70.5234375 167.9296875 C68.12436091 171.71284673 68.3678434 175.18281103 68.8984375 179.4921875 C70.16895478 184.2086427 71.79967268 188.77587611 73.4609375 193.3671875 C74.32444206 195.77838729 75.18031389 198.1923386 76.02734375 200.609375 C76.60077515 202.19661377 76.60077515 202.19661377 77.18579102 203.81591797 C77.8984375 206.4921875 77.8984375 206.4921875 76.8984375 209.4921875 C76.16842529 209.15485596 75.43841309 208.81752441 74.6862793 208.4699707 C71.31965911 206.91452884 67.95279969 205.35960545 64.5859375 203.8046875 C62.86407227 203.00901367 62.86407227 203.00901367 61.10742188 202.19726562 C59.96982422 201.67197266 58.83222656 201.14667969 57.66015625 200.60546875 C56.53013184 200.07002441 55.40010742 199.53458008 54.23583984 198.98291016 C50.95583348 197.45388225 50.95583348 197.45388225 47.65869141 196.40380859 C44.69302723 195.35650547 42.38488334 194.4217112 39.8984375 192.4921875 C38.16372417 188.57255107 38.08316284 184.73613374 37.8984375 180.4921875 C37.71032441 178.55957305 37.52188156 176.62696634 37.32177734 174.69555664 C36.9055929 170.59479891 36.56576124 166.48670496 36.22119141 162.37939453 C36.04768565 160.33297737 35.86427381 158.28763059 35.6796875 156.2421875 C35.57720703 155.04078125 35.47472656 153.839375 35.36914062 152.6015625 C34.93284189 149.71945633 34.5419618 147.87699745 32.8984375 145.4921875 C30.34469135 144.24564395 27.93378368 143.2592722 25.2734375 142.3046875 C24.49307129 141.9859668 23.71270508 141.66724609 22.90869141 141.33886719 C18.14359426 139.4424679 13.73419391 138.24976036 8.6484375 137.55078125 C1.65684022 136.28458647 -4.28615587 135.02878887 -9.1015625 129.4921875 C-12.97036217 120.90538202 -13.91863596 111.02795468 -15.03955078 101.76855469 C-15.15540024 100.81251343 -15.27124969 99.85647217 -15.39060974 98.87145996 C-15.59689449 97.04530726 -15.7772755 95.21598558 -15.9278717 93.38439941 C-16.36232775 89.04902629 -16.73625028 86.96549031 -19.46606445 83.42871094 C-22.04755355 81.22127022 -22.04755355 81.22127022 -25.6640625 80.9296875 C-29.83362864 81.61198014 -30.48668511 82.23557276 -33.1015625 85.4921875 C-34.71324496 88.55898188 -36.03416605 91.73052839 -37.359375 94.9296875 C-37.94306351 96.3053186 -37.94306351 96.3053186 -38.5385437 97.70874023 C-39.77705646 100.632781 -41.00213604 103.56222397 -42.2265625 106.4921875 C-43.4610286 109.42085854 -44.6981852 112.34837968 -45.93600464 115.27563477 C-46.70432148 117.09534412 -47.47014549 118.91610849 -48.23318481 120.73803711 C-48.58049652 121.5656958 -48.92780823 122.39335449 -49.28564453 123.24609375 C-49.58890656 123.97127197 -49.89216858 124.6964502 -50.20462036 125.44360352 C-51.1015625 127.4921875 -51.1015625 127.4921875 -52.17990112 129.53491211 C-53.77289491 132.91785472 -53.85533253 135.91177986 -53.1015625 139.4921875 C-51.21595399 143.45594905 -48.66796744 146.94762029 -46.1015625 150.4921875 C-45.43350586 151.42369629 -45.43350586 151.42369629 -44.75195312 152.37402344 C-42.67475951 155.26835866 -40.59009981 158.15703981 -38.49316406 161.03710938 C-31.86423191 170.14676178 -25.47262485 179.41958128 -19.05517578 188.67871094 C-16.0832408 192.95871328 -13.09293651 197.22575956 -10.1015625 201.4921875 C-0.07317728 215.80490578 9.9366626 230.13129434 19.80615234 244.55419922 C22.33575984 248.24356663 24.89315527 251.91171523 27.47265625 255.56640625 C28.09253418 256.44594971 28.71241211 257.32549316 29.35107422 258.23168945 C30.54886237 259.92900149 31.74949015 261.62431497 32.95361328 263.31713867 C42.12070661 276.3124974 46.10358465 285.48341334 44.8984375 301.4921875 C43.55108354 309.21587261 40.26240159 315.96266122 36.7421875 322.890625 C36.3719043 323.62498779 36.00162109 324.35935059 35.62011719 325.1159668 C34.71541658 326.90931688 33.80728075 328.70093329 32.8984375 330.4921875 C11.26272267 330.70253916 -10.37282328 330.86119051 -32.00935364 330.95849705 C-42.05590013 331.00488171 -52.10181084 331.06810596 -62.14794922 331.17114258 C-70.90542085 331.26091928 -79.66243201 331.31892815 -88.42035103 331.33898395 C-93.05681495 331.35070596 -97.69196172 331.3782007 -102.32800293 331.44375801 C-106.69504399 331.5050091 -111.06023016 331.52366095 -115.42765999 331.51015663 C-117.02728433 331.51262565 -118.62697287 331.53043799 -120.2262249 331.56503677 C-132.2810719 331.81296665 -132.2810719 331.81296665 -136.79078674 328.54113579 C-138.83143421 326.28594501 -140.4879659 324.06468832 -142.1015625 321.4921875 C-142.53704407 320.89391427 -142.97252563 320.29564104 -143.42120361 319.67923832 C-159.81266624 297.03156368 -168.16105724 269.66478688 -168.3046875 241.84765625 C-168.31038757 240.95718094 -168.31608765 240.06670563 -168.32196045 239.14924622 C-168.33134177 237.27276774 -168.33791681 235.3962733 -168.34179688 233.51977539 C-168.35140856 230.72445825 -168.38245944 227.92990809 -168.4140625 225.13476562 C-168.52387568 206.86336371 -166.00553844 189.36037437 -161.4765625 171.6796875 C-161.30515747 171.00518555 -161.13375244 170.33068359 -160.95715332 169.63574219 C-153.56855993 140.74983628 -141.63473958 113.67798077 -124.1015625 89.4921875 C-123.67133789 88.89374023 -123.24111328 88.29529297 -122.79785156 87.67871094 C-116.52718821 79.02901371 -109.50276862 71.17329851 -102.1015625 63.4921875 C-101.51713379 62.88052734 -100.93270508 62.26886719 -100.33056641 61.63867188 C-91.80921559 52.75668897 -83.01850486 44.77762003 -73.1015625 37.4921875 C-72.47620605 37.02248535 -71.85084961 36.5527832 -71.20654297 36.06884766 C-53.12023421 22.51429218 -33.46858704 11.93612243 -12.53173828 3.47558594 C-10.94790421 2.83466936 -9.37258426 2.17216342 -7.80810547 1.48535156 C-2.720942 -0.65747669 -2.720942 -0.65747669 0 0 Z " fill="#FECE6F" transform="translate(314.1015625,73.5078125)"/>
<path d="M0 0 C5.0634397 4.48997832 9.85095068 9.25126354 14.53955078 14.13037109 C11.53256052 17.42408487 8.50354758 19.46481287 4.59423828 21.59130859 C4.02432159 21.90435944 3.45440491 22.21741028 2.86721802 22.53994751 C1.05314839 23.53496357 -0.76581168 24.52058055 -2.58544922 25.50537109 C-4.37693564 26.48157609 -6.1672957 27.45978972 -7.95672607 28.4397583 C-9.6976325 29.39251867 -11.44084521 30.34106098 -13.18408203 31.28955078 C-17.0121679 33.44035312 -20.70681132 35.76401728 -24.37011719 38.18359375 C-26.46044922 39.13037109 -26.46044922 39.13037109 -28.58374023 38.89355469 C-31.3309675 37.77636561 -33.26573709 36.04517844 -35.52294922 34.13037109 C-36.49361328 33.31568359 -37.46427734 32.50099609 -38.46435547 31.66162109 C-39.45306641 30.82630859 -40.44177734 29.99099609 -41.46044922 29.13037109 C-43.29091158 27.62686896 -45.1241849 26.12678162 -46.96044922 24.63037109 C-50.62711589 21.63037109 -54.29378255 18.63037109 -57.96044922 15.63037109 C-59.31009766 14.52822266 -59.31009766 14.52822266 -60.68701172 13.40380859 C-62.60400618 11.83241313 -64.51510621 10.25380921 -66.42138672 8.66943359 C-67.38302734 7.87279297 -68.34466797 7.07615234 -69.33544922 6.25537109 C-70.63095703 5.17642578 -70.63095703 5.17642578 -71.95263672 4.07568359 C-72.78021484 3.43373047 -73.60779297 2.79177734 -74.46044922 2.13037109 C-75.20552734 1.52966797 -75.95060547 0.92896484 -76.71826172 0.31005859 C-83.71377723 -2.69940819 -91.55295601 0.93002039 -98.21044922 3.56787109 C-99.56638184 4.09695068 -99.56638184 4.09695068 -100.94970703 4.63671875 C-117.19102417 11.09448217 -132.65087775 18.85605043 -147.46044922 28.13037109 C-148.49041016 28.77361328 -149.52037109 29.41685547 -150.58154297 30.07958984 C-163.34412339 38.3397674 -175.33659676 47.78355245 -186.46044922 58.13037109 C-187.81067835 59.30159258 -189.16471413 60.46844342 -190.52294922 61.63037109 C-198.69486372 68.78489865 -205.74048319 76.61082094 -212.46044922 85.13037109 C-213.24162109 86.09458984 -214.02279297 87.05880859 -214.82763672 88.05224609 C-234.75720757 113.13930972 -250.33344445 143.09687186 -258.46044922 174.13037109 C-258.68684082 174.9735791 -258.91323242 175.81678711 -259.14648438 176.68554688 C-262.71863601 190.05792705 -265.76153532 203.3847549 -267.46044922 217.13037109 C-267.60184326 218.19904419 -267.60184326 218.19904419 -267.74609375 219.28930664 C-268.72221755 227.56365843 -268.69919835 235.87317597 -268.71044922 244.19287109 C-268.71395386 245.37600388 -268.71395386 245.37600388 -268.7175293 246.58303833 C-268.73229131 259.84586535 -267.81746946 272.72084162 -265.73583984 285.83911133 C-265.44130911 288.28961748 -265.41461973 290.6645808 -265.46044922 293.13037109 C-270.63199831 291.374179 -274.68237181 288.27542103 -279.01171875 285.05761719 C-281.73286231 283.04812461 -284.31911214 281.20519661 -287.31591797 279.61865234 C-296.95648498 274.40228353 -299.15420081 263.90229278 -302.46044922 254.13037109 C-303.0212391 252.54773284 -303.5836642 250.96567279 -304.14794922 249.38427734 C-313.77065769 221.95941092 -313.77065769 221.95941092 -311.46044922 214.13037109 C-305.70959125 205.5368339 -297.6098748 199.86292067 -287.96044922 196.44287109 C-284.24336378 195.43773973 -284.24336378 195.43773973 -282.46044922 192.13037109 C-282.0418744 188.29343522 -281.91400653 186.01834046 -283.96044922 182.69287109 C-287.52246119 180.46661361 -290.443522 180.47879594 -294.46044922 181.13037109 C-301.61875688 182.91466902 -307.00239972 185.84928816 -312.58544922 190.64208984 C-314.46044922 192.13037109 -314.46044922 192.13037109 -317.46044922 193.13037109 C-318.60003897 183.49288705 -318.70327793 173.88346612 -318.71044922 164.19287109 C-318.71112396 163.37521271 -318.71179871 162.55755432 -318.7124939 161.71511841 C-318.69991665 152.12150314 -318.61542291 142.58564177 -317.27294922 133.06787109 C-317.17208008 132.2912915 -317.07121094 131.51471191 -316.96728516 130.71459961 C-316.35546399 127.13561069 -315.6577904 125.32642876 -313.05810547 122.74365234 C-304.75783413 117.58874698 -297.0010104 117.52388065 -287.46044922 118.13037109 C-286.80044922 118.46037109 -286.14044922 118.79037109 -285.46044922 119.13037109 C-279.54355144 119.75013065 -279.54355144 119.75013065 -274.46044922 117.00537109 C-272.11382427 113.63209772 -271.86135243 112.15287812 -272.46044922 108.13037109 C-273.37653412 105.72214171 -273.94266346 104.44632199 -276.1652832 103.09008789 C-282.97563516 100.83050843 -289.39568556 100.78247682 -296.52294922 100.94287109 C-297.67472656 100.95640625 -298.82650391 100.96994141 -300.01318359 100.98388672 C-302.82943894 101.01894384 -305.64468687 101.06808253 -308.46044922 101.13037109 C-307.65722286 96.7185218 -306.21378115 92.83962822 -304.39794922 88.75537109 C-304.08704346 88.05492676 -303.7761377 87.35448242 -303.45581055 86.6328125 C-298.3025104 75.19615884 -292.56412979 64.41866193 -284.90185547 54.45068359 C-283.21578005 52.24943638 -282.03642441 50.31308973 -280.73779297 47.81005859 C-278.58024878 44.1019277 -277.1802107 42.33597084 -273.46044922 40.13037109 C-260.88487366 37.75848162 -242.21782112 38.25168514 -230.46044922 44.13037109 C-224.85341709 44.3441483 -224.85341709 44.3441483 -219.46044922 43.13037109 C-218.10296017 39.05790394 -217.55192486 35.116091 -219.38623047 31.10693359 C-222.67110218 27.97671686 -226.59510809 27.15594797 -230.89794922 25.94287109 C-231.79288086 25.6816748 -232.6878125 25.42047852 -233.60986328 25.15136719 C-240.24441497 23.28981398 -246.54456334 22.15848445 -253.46044922 22.13037109 C-253.46044922 21.47037109 -253.46044922 20.81037109 -253.46044922 20.13037109 C-251.14509348 18.2075001 -248.82258964 16.40683483 -246.39794922 14.63037109 C-245.66987061 14.09283203 -244.94179199 13.55529297 -244.19165039 13.00146484 C-230.52269009 2.9839745 -216.29699401 -5.68140531 -201.46044922 -13.86962891 C-200.80254395 -14.23701172 -200.14463867 -14.60439453 -199.46679688 -14.98291016 C-188.37077956 -21.13612826 -188.37077956 -21.13612826 -182.46044922 -19.86962891 C-174.58794104 -16.90912231 -168.86454016 -12.91586021 -163.20263672 -6.72509766 C-160.96134041 -4.33806683 -159.90877692 -3.92940593 -156.64794922 -3.49462891 C-153.31437919 -3.63778768 -153.31437919 -3.63778768 -150.52294922 -5.86962891 C-148.1555305 -8.78177097 -148.1555305 -8.78177097 -148.14794922 -12.61962891 C-149.24114194 -18.27850889 -153.50106249 -21.96166279 -157.46044922 -25.86962891 C-158.58 -26.99111328 -158.58 -26.99111328 -159.72216797 -28.13525391 C-160.58261719 -28.99376953 -160.58261719 -28.99376953 -161.46044922 -29.86962891 C-108.81496858 -50.70228246 -42.47712276 -36.69489662 0 0 Z " fill="#CB953F" transform="translate(397.46044921875,55.86962890625)"/>
<path d="M0 0 C90.75 0 181.5 0 275 0 C275 8.91 275 17.82 275 27 C184.25 27 93.5 27 0 27 C0 18.09 0 9.18 0 0 Z " fill="#CA953F" transform="translate(123,467)"/>
<path d="M0 0 C72.93 0 145.86 0 221 0 C221 8.91 221 17.82 221 27 C148.07 27 75.14 27 0 27 C0 18.09 0 9.18 0 0 Z " fill="#FECE6F" transform="translate(150,422)"/>
</svg>
